<?xml version="1.0" encoding="UTF-8"?>
<svg id="Layer_2" data-name="Layer 2" xmlns="http://www.w3.org/2000/svg" viewBox="0 0 1200 1200">
  <defs>
    <style>
      .cls-1 {
        fill: #fff;
      }

      .cls-2 {
        fill: #006c35;
      }
    </style>
  </defs>
  <g id="Layer_1-2" data-name="Layer 1">
    <g>
      <circle class="cls-2" cx="600" cy="600" r="600"/>
      <g>
        <path class="cls-1" d="M273.12,522.88v107.19c0,1.25.41,2.29,1.25,3.12.83.83,2.07,1.25,3.74,1.25h10.59v40.2h-24.62c-10.6,0-20.25-4.15-28.98-12.46-10.18,10.18-22.44,15.27-36.77,15.27h-.94c-20.78,0-37.08-8.62-48.92-25.86-9.56-13.5-14.33-29.6-14.33-48.3,0-22.85,7.27-41.76,21.81-56.71,13.09-13.5,29.39-20.25,48.92-20.25,10.6,0,21.08,2.18,31.47,6.54l12.78-9.97h23.99ZM192.72,462.73c6.86,0,12.67,2.39,17.45,7.17,4.78,4.78,7.17,10.49,7.17,17.14s-2.39,12.36-7.17,17.14-10.59,7.17-17.45,7.17-12.36-2.39-17.14-7.17c-4.78-4.78-7.17-10.49-7.17-17.14s2.39-12.62,7.17-17.29c4.78-4.67,10.49-7.01,17.14-7.01ZM224.82,569.93c-4.99-1.25-9.66-1.87-14.02-1.87-9.14,0-16.31,3.12-21.5,9.35-5.2,6.23-7.79,14.86-7.79,25.86,0,10.39,2.85,18.91,8.57,25.55,5.71,6.65,13.14,9.97,22.28,9.97,3.53,0,7.68-.52,12.46-1.56v-67.31ZM248.5,462.73c6.86,0,12.67,2.39,17.45,7.17,4.78,4.78,7.17,10.49,7.17,17.14s-2.39,12.36-7.17,17.14c-4.78,4.78-10.59,7.17-17.45,7.17s-12.31-2.39-16.98-7.17c-4.67-4.78-7.01-10.49-7.01-17.14s2.34-12.62,7.01-17.29c4.67-4.67,10.33-7.01,16.98-7.01Z"/>
        <path class="cls-1" d="M310.2,688.96c6.86,0,12.67,2.39,17.45,7.17s7.17,10.59,7.17,17.45-2.39,12.36-7.17,17.14c-4.78,4.78-10.59,7.17-17.45,7.17s-12.36-2.39-17.14-7.17-7.17-10.49-7.17-17.14,2.39-12.67,7.17-17.45c4.78-4.78,10.49-7.17,17.14-7.17ZM390.6,531.29v100.34c0,.83.1,1.77.31,2.8h15.58v40.2h-9.66l-13.71-14.33h-.93c-7.69,9.56-17.76,14.33-30.23,14.33h-65.13v-40.2h49.55c2.07,0,3.63-.62,4.67-1.87,1.04-1.04,1.56-2.49,1.56-4.36v-96.91h47.99ZM365.98,688.96c6.86,0,12.67,2.39,17.45,7.17,4.78,4.78,7.17,10.59,7.17,17.45s-2.39,12.36-7.17,17.14c-4.78,4.78-10.6,7.17-17.45,7.17s-12.31-2.39-16.98-7.17c-4.67-4.78-7.01-10.49-7.01-17.14s2.34-12.67,7.01-17.45c4.67-4.78,10.33-7.17,16.98-7.17Z"/>
        <path class="cls-1" d="M508.07,531.29v104.7c0,9.14-3.01,17.35-9.04,24.62-7.9,9.35-17.87,14.02-29.91,14.02h-65.13v-40.2h51.42c1.25,0,2.28-.31,3.12-.93,1.04-.83,1.56-1.97,1.56-3.43v-98.78h47.99ZM477.85,688.96c6.65,0,12.36,2.39,17.14,7.17s7.17,10.59,7.17,17.45-2.39,12.36-7.17,17.14c-4.78,4.78-10.49,7.17-17.14,7.17s-12.62-2.39-17.29-7.17c-4.67-4.78-7.01-10.49-7.01-17.14s2.34-12.67,7.01-17.45c4.67-4.78,10.44-7.17,17.29-7.17Z"/>
        <path class="cls-1" d="M643,531.29v103.14h15.58v40.2h-16.2c-2.29,23.89-12.67,42.79-31.16,56.71-15.58,11.42-33.86,17.14-54.84,17.14-2.29,0-5.92-.11-10.91-.31l-19.63-24.62v-16.52c.62.21,1.77.41,3.43.62,5.4,1.04,10.18,1.56,14.33,1.56,17.24-.42,30.02-4.78,38.33-13.09,8.52-8.52,12.78-21.5,12.78-38.95v-125.89h48.3Z"/>
        <path class="cls-1" d="M699.71,589.56c7.68-22.85,21.19-39.47,40.51-49.86,13.71-7.68,29.6-11.53,47.68-11.53,17.03,0,32.41,4.57,46.12,13.71,16.62,10.59,28.56,26.49,35.83,47.68l-3.74,9.66c-4.78,2.7-11.12,7.79-19.01,15.27-7.48,7.48-12.98,14.13-16.51,19.94h42.38v40.2h-73.23c-4.99,0-9.77-2.49-14.33-7.48h-1.25c-4.57,4.99-9.66,7.48-15.27,7.48h-112.49v-40.2h82.58c-3.33-5.81-8.72-12.25-16.2-19.32-8.1-8.1-14.54-13.4-19.32-15.89l-3.74-9.66ZM820.31,587.69c-3.12-7.48-8.93-12.88-17.45-16.2-5.2-2.07-10.91-3.12-17.14-3.12-8.1,0-15.38,1.46-21.81,4.36-7.28,3.33-12.15,8.31-14.65,14.96,4.15,2.49,10.07,8.21,17.76,17.14,8.73,9.97,14.33,18.07,16.83,24.31h1.87c2.91-7.27,9.04-15.89,18.38-25.86,6.86-7.89,12.26-13.09,16.2-15.58Z"/>
        <path class="cls-1" d="M974.87,451.52v184.47c0,9.14-2.91,17.35-8.73,24.62-7.9,9.35-17.97,14.02-30.23,14.02h-65.13v-40.2h51.42c1.25,0,2.28-.31,3.12-.93,1.04-.83,1.56-1.97,1.56-3.43v-178.55h47.99Z"/>
        <path class="cls-1" d="M1065.86,451.52v211.27l-24.31,19.63h-23.68v-230.9h47.99Z"/>
      </g>
    </g>
  </g>
</svg>