<?xml version="1.0" encoding="UTF-8"?>
<svg id="Layer_2" data-name="Layer 2" xmlns="http://www.w3.org/2000/svg" viewBox="0 0 1200 1200">
  <defs>
    <style>
      .cls-1 {
        fill: #fff;
      }

      .cls-2 {
        fill: #d70027;
      }

      .cls-3 {
        fill: #0152b3;
      }
    </style>
  </defs>
  <g id="Layer_1-2" data-name="Layer 1">
    <g>
      <circle class="cls-1" cx="600" cy="600" r="600"/>
      <g>
        <g>
          <path class="cls-2" d="M568.01,1199.3c-.14,0-1.12-.97-2.41-1.05-122.5-7.35-242.68-51.37-337.5-128.88h743.81c-95.53,78.27-216.95,122.31-340.49,128.88-1.29.07-2.28,1.03-2.42,1.04-18.72.87-42.31.99-60.98,0Z"/>
          <path class="cls-2" d="M1178.85,756.56c-12.64,46.27-30.19,91.84-53.81,133.59-2.01,3.55-10.78,19.73-12.68,21.31-.94.78-1.65,1.2-2.93,1.07l-1019.8-.05c-1.33.04-1.68-.91-2.38-1.61-2.8-2.79-9.78-16.29-12.28-20.71-23.62-41.75-41.16-87.31-53.81-133.59h1157.7Z"/>
        </g>
        <g>
          <g>
            <path class="cls-2" d="M1199.84,569.67c.49,9.93-.36,20.04,0,29.98h-599.84v-156.91l578.22.13c.93.16,1.07.86,1.44,1.56,1.66,3.17,4.42,17.8,5.51,22.48,7.38,31.93,13.09,70.3,14.68,102.76Z"/>
            <path class="cls-2" d="M600,129.92l373.2.2c54.31,43.62,102.25,96.05,137.68,156.2l-510.88.51v-156.91Z"/>
          </g>
          <path class="cls-3" d="M600,0v599.65H.16c.36-9.95-.49-20.05,0-29.98,0-.14.97-1.13,1.04-2.41.79-13.9,1.59-27.74,3.47-41.54l29.24-21.83,3.8.75,47.41,34.06-17.84-58.26,49.84-37.68h-62.98l-15.77-49.73c-.63-1.88-.15-3.44.26-5.25,1.85-8.11,9.54-24.55,13.34-32.65.8-1.71,4.68-10.09,5.7-10.32l28.45,19.51c-3.41-11.33-7.91-22.38-11.24-33.73-.92-3.12-3.99-11.49-3.56-14.01.45-2.66,12.05-22.45,14.29-24.77,6.66-6.89,20.45-14.02,28.44-20.54,1.13-.92,2.62-1.99,3.08-3.41h-16c1.95-4.64,5.31-9.16,8.18-13.31,28.02-40.54,64.43-80.15,102.32-111.63,1.54-1.28,1.29-4.62,4.45-2.5l-15.97,49.48,50.5-35.99,49.98,35.97-18.4-59.29,48.89-36.64h-51.99c6.62-5.74,15.52-10.67,23.32-15.16C381.97,32.96,473.61,6.12,565.6,1.05l2.41-1.05h31.99ZM485.03,93.95l-19.49-58.98-19.49,58.98h-60.98l48.86,36.58-18.37,59.34,50-35.95,50.48,35.97-19.04-59.38,50.04-36.57h-61.98ZM331.07,267.84h-60.48l-19.99-58.98-19.49,58.98h-61.98l48.84,37.7-17.84,58.24,50.49-34.93,49.99,35.92-18.38-59.34,47.34-34.6,1.52-2.98ZM547.01,267.84h-61.48l-19.99-58.98-19.99,58.98h-60.48l1.52,2.98,47.34,34.6-18.86,59.36,50.47-35.94,50.49,34.93-18.86-58.36,49.86-37.58ZM332.07,442.74h-61.48l-19.99-58.98-19.49,58.98h-61.98l49.03,36.69-17.53,59.27c8.36-3.55,44.41-34.91,49.97-34.93,4.33-.02,47.47,36.13,49.48,33.91l-17.81-57.34,49.81-37.6ZM547.01,442.74h-61.48l-19.99-58.98-19.99,58.98h-61.48l49.81,37.6-18.81,58.34,50.49-34.91,49.97,34.93-18.36-58.37,49.86-37.58Z"/>
        </g>
      </g>
    </g>
  </g>
</svg>